#!OML:ASF H:\ManfredObstacles\Project 1\Capture day 2\Session 1\male.ASF
:FULLY-SPECIFIED
:DEGREES
175
root 1.68993 15.8039 -20.4296 -174.914 -1.79853 -180.28
lowerback -5.1365 -1.36141 -4.55862
upperback 1.20669 -1.51917 -0.132935
thorax 4.25045 -0.87287 2.28554
lowerneck -33.894 -1.25908 2.69556
upperneck 42.1408 -0.57001 -0.0853934
head 24.9391 1.27093 -0.280508
rclavicle 1.46852e-014 1.35174e-014
rhumerus -48.3132 -28.9396 -62.6132
rradius 19.7566
rwrist 44.5983
rhand -3.00623 -7.28083
rfingers 7.12502
rthumb 22.708 -35.9647
lclavicle 1.46852e-014 1.35174e-014
lhumerus -27.4165 28.6849 75.4975
lradius 19.2403
lwrist -55.2982
lhand -1.50978 10.2912
lfingers 7.12502
lthumb 24.1435 38.7919
rfemur -17.3229 2.78995 26.8802
rtibia 30.5667
rfoot -10.7665 -19.8781
rtoes -7.19219
lfemur -16.6385 -0.226426 -19.6548
ltibia 73.0764
lfoot 15.7105 12.5717
ltoes -3.30035
176
root 1.68816 15.8178 -20.6175 -174.864 -1.18069 -180.321
lowerback -5.28084 -1.08651 -4.4708
upperback 1.16537 -1.14898 -0.253352
thorax 4.25641 -0.685715 2.14327
lowerneck -33.7605 -1.32062 2.73492
upperneck 42.2807 -0.631523 -0.0602084
head 25.0248 1.28591 -0.280689
rclavicle 1.47101e-014 1.94809e-014
rhumerus -45.6889 -26.4105 -66.6773
rradius 20.8223
rwrist 41.9588
rhand -3.29828 -7.33605
rfingers 7.12502
rthumb 22.4277 -36.0539
lclavicle 1.47101e-014 1.94809e-014
lhumerus -29.6766 34.8725 70.9007
lradius 17.0896
lwrist -61.7646
lhand -0.861999 10.1162
lfingers 7.12502
lthumb 24.7645 38.533
rfemur -16.3899 3.0402 26.8881
rtibia 30.1798
rfoot -11.0601 -19.724
rtoes -7.53321
lfemur -18.3447 0.107027 -19.777
ltibia 73.7305
lfoot 14.5027 13.6409
ltoes -4.07299
177
root 1.68564 15.8278 -20.8038 -174.819 -0.549258 -180.362
lowerback -5.3876 -0.82045 -4.37333
upperback 1.11821 -0.793928 -0.370166
thorax 4.23863 -0.505495 1.99913
lowerneck -33.6498 -1.35934 2.78121
upperneck 42.4111 -0.653888 -0.0587141
head 25.1118 1.30987 -0.284996
rclavicle -6.93262e-015 -1.94809e-014
rhumerus -43.3627 -23.852 -70.2505
rradius 21.9981
rwrist 39.6692
rhand -3.62439 -7.34074
rfingers 7.12502
rthumb 22.1146 -36.096
lclavicle -6.93262e-015 -1.94809e-014
lhumerus -33.3567 41.8355 64.6484
lradius 15.2812
lwrist -69.534
lhand -0.29101 9.91473
lfingers 7.12502
lthumb 25.3116 38.2552
rfemur -15.5159 3.27807 26.8825
rtibia 29.8787
rfoot -11.3576 -19.5549
rtoes -7.95396
lfemur -20.0145 0.418028 -19.9011
ltibia 74.1899
lfoot 13.3213 14.6473
ltoes -4.72173
178
root 1.68243 15.8338 -20.9886 -174.784 0.0907981 -180.387
lowerback -5.45299 -0.583573 -4.24891
upperback 1.06644 -0.443197 -0.475078
thorax 4.19663 -0.30978 1.85367
lowerneck -33.5361 -1.39678 2.80412
upperneck 42.5487 -0.650169 -0.0644729
head 25.2069 1.33813 -0.280657
rclavicle -3.47873e-016 -7.15625e-015
rhumerus -41.3009 -21.337 -73.3477
rradius 23.2784
rwrist 37.6934
rhand -3.94849 -7.3143
rfingers 7.12502
rthumb 21.8034 -36.1061
lclavicle -3.47873e-016 -7.15625e-015
lhumerus -39.4149 49.2628 55.797
lradius 13.8432
lwrist -78.619
lhand 0.170862 9.70928
lfingers 7.12502
lthumb 25.754 37.9864
rfemur -14.6953 3.50613 26.8793
rtibia 29.6647
rfoot -11.6548 -19.3751
rtoes -8.45115
lfemur -21.6461 0.70266 -20.0081
ltibia 74.4598
lfoot 12.1974 15.5873
ltoes -5.25555
179
root 1.67827 15.8358 -21.1718 -174.763 0.736647 -180.388
lowerback -5.4594 -0.326154 -4.09812
upperback 1.01277 -0.106491 -0.567638
thorax 4.12171 -0.135132 1.70396
lowerneck -33.437 -1.41862 2.83084
upperneck 42.677 -0.617576 -0.089686
head 25.3001 1.37227 -0.280464
rclavicle 1.78906e-015 4.37326e-015
rhumerus -39.4766 -18.9103 -76.023
rradius 24.6796
rwrist 35.9885
rhand -4.25827 -7.2551
rfingers 7.12502
rthumb 21.5059 -36.0812
lclavicle 1.78906e-015 4.37326e-015
lhumerus -49.4188 56.3972 42.8138
lradius 12.8121
lwrist -88.8363
lhand 0.516595 9.48715
lfingers 7.12502
lthumb 26.0851 37.7159
rfemur -13.914 3.72415 26.8899
rtibia 29.5337
rfoot -11.9536 -19.196
rtoes -9.01142
lfemur -23.2282 0.95505 -20.0866
ltibia 74.5419
lfoot 11.1765 16.4559
ltoes -5.65361
180
root 1.67273 15.8341 -21.3536 -174.751 1.37845 -180.364
lowerback -5.42168 -0.0711982 -3.91102
upperback 0.960698 0.221222 -0.648346
thorax 4.02688 0.035699 1.54469
lowerneck -33.3519 -1.4441 2.83681
upperneck 42.8192 -0.572618 -0.114338
head 25.4155 1.40817 -0.271406
rclavicle -2.48481e-016 1.11319e-014
rhumerus -37.8449 -16.5673 -78.3438
rradius 26.2125
rwrist 34.403
rhand -4.5206 -7.22117
rfingers 7.12502
rthumb 21.254 -36.0759
lclavicle -2.48481e-016 1.11319e-014
lhumerus -65.1104 61.888 24.0224
lradius 12.1924
lwrist -99.7654
lhand 0.712225 9.24473
lfingers 7.12502
lthumb 26.2724 37.4457
rfemur -13.1647 3.90732 26.9127
rtibia 29.4688
rfoot -12.2672 -18.9961
rtoes -9.57984
lfemur -24.7571 1.16278 -20.1343
ltibia 74.4274
lfoot 10.2737 17.2753
ltoes -5.96462
181
root 1.66618 15.829 -21.5336 -174.754 2.01479 -180.311
lowerback -5.33224 0.18256 -3.68996
upperback 0.923221 0.542209 -0.719518
thorax 3.92157 0.203406 1.37448
lowerneck -33.2862 -1.45706 2.84825
upperneck 42.9276 -0.522841 -0.146073
head 25.5045 1.44043 -0.268615
rclavicle 4.37326e-015 -9.93923e-015
rhumerus -36.3451 -14.3583 -80.3494
rradius 27.8299
rwrist 32.9504
rhand -4.76417 -7.16696
rfingers 7.12502
rthumb 21.02 -36.0478
lclavicle 4.37326e-015 -9.93923e-015
lhumerus -85.608 64.1234 0.379893
lradius 11.9535
lwrist -110.783
lhand 0.753605 8.97443
lfingers 7.12502
lthumb 26.312 37.1695
rfemur -12.4273 4.07523 26.9584
rtibia 29.4472
rfoot -12.5744 -18.7979
rtoes -10.155
lfemur -26.2208 1.33266 -20.1336
ltibia 74.1093
lfoot 9.49404 18.0472
ltoes -6.26151
182
root 1.65833 15.8221 -21.7149 -174.774 2.64293 -180.245
lowerback -5.21554 0.434442 -3.44565
upperback 0.888197 0.857854 -0.784384
thorax 3.80719 0.368645 1.19585
lowerneck -33.2188 -1.4608 2.86996
upperneck 43.0233 -0.460177 -0.193507
head 25.5803 1.47513 -0.274002
rclavicle 2.83268e-015 -9.93923e-015
rhumerus -34.9936 -12.2397 -82.077
rradius 29.533
rwrist 31.5721
rhand -4.961 -7.13431
rfingers 7.12502
rthumb 20.8309 -36.036
lclavicle 2.83268e-015 -9.93923e-015
lhumerus -104.916 62.6307 -21.9939
lradius 12.0402
lwrist -121.186
lhand 0.666257 8.6789
lfingers 7.12502
lthumb 26.2284 36.8864
rfemur -11.6636 4.17055 26.9994
rtibia 29.4327
rfoot -12.8903 -18.5463
rtoes -10.7305
lfemur -27.5776 1.45816 -20.1046
ltibia 73.565
lfoot 8.79568 18.812
ltoes -6.53823
183
root 1.64936 15.8141 -21.8976 -174.81 3.25235 -180.166
lowerback -5.08417 0.678076 -3.18214
upperback 0.866821 1.16111 -0.843243
thorax 3.70287 0.527387 1.01024
lowerneck -33.1567 -1.45687 2.89196
upperneck 43.087 -0.397474 -0.244556
head 25.6242 1.50466 -0.283973
rclavicle 1.26725e-014 -1.98785e-014
rhumerus -33.7293 -10.2268 -83.5667
rradius 31.2793
rwrist 30.2573
rhand -5.15468 -7.10681
rfingers 7.12502
rthumb 20.6448 -36.0289
lclavicle 1.26725e-014 -1.98785e-014
lhumerus -118.374 58.9107 -38.3488
lradius 12.3619
lwrist -130.393
lhand 0.475046 8.38504
lfingers 7.12502
lthumb 26.0453 36.6196
rfemur -10.8573 4.2028 27.0387
rtibia 29.3912
rfoot -13.1709 -18.258
rtoes -11.3635
lfemur -28.8221 1.53692 -20.0368
ltibia 72.7868
lfoot 8.14163 19.5757
ltoes -6.77452
184
root 1.63979 15.8061 -22.0834 -174.872 3.87401 -180.065
lowerback -4.94741 0.921589 -2.89857
upperback 0.868633 1.4632 -0.89033
thorax 3.62318 0.684847 0.824344
lowerneck -33.1231 -1.43543 2.92641
upperneck 43.116 -0.326388 -0.309364
head 25.6433 1.53146 -0.304878
rclavicle 1.93815e-015 -6.75868e-015
rhumerus -32.5138 -8.32336 -84.8421
rradius 33.0377
rwrist 28.9974
rhand -5.32918 -7.10111
rfingers 7.12502
rthumb 20.4771 -36.0413
lclavicle 1.93815e-015 -6.75868e-015
lhumerus -126.666 54.5494 -49.3407
lradius 12.8313
lwrist -138.304
lhand 0.211001 8.0856
lfingers 7.12502
lthumb 25.7925 36.3572
rfemur -9.97642 4.20229 27.0817
rtibia 29.2876
rfoot -13.3957 -17.93
rtoes -12.0388
lfemur -29.9212 1.60934 -19.9227
ltibia 71.7651
lfoot 7.54268 20.3084
ltoes -6.95534
